# xmcd
#
# Track frame offsets:
#	212
#	21615
#	56040
#	74042
#	103307
#	125290
#	152267
#	172975
#	190042
#
# Disc length: 2783 seconds
#
# Revision: 2
# Processed by: cddbd v1.4PL0 Copyright (c) Steve Scherf et al.
# Submitted via: EasyCDDAExtractor 5.0.6
#
DISCID=7b0add09
DTITLE=Charles Brown - Someone To Love
DYEAR=1992
DGENRE=Blues
TTITLE0=Someone To Love
TTITLE1=I Wonder How She Knows
TTITLE2=Don't Drive Me Away
TTITLE3=Not So Far
TTITLE4=Tell Me You'll Wait For Me
TTITLE5=Be Sharp You'll See
TTITLE6=Every Little Bit Hurts
TTITLE7=I Want To Go Home
TTITLE8=I Don't Want To Get Adjusted
EXTD=
EXTT0=
EXTT1=
EXTT2=
EXTT3=
EXTT4=
EXTT5=
EXTT6=
EXTT7=
EXTT8=
PLAYORDER=
